<?xml version="1.0" standalone="no"?><!DOCTYPE svg PUBLIC "-//W3C//DTD SVG 1.1//EN" "http://www.w3.org/Graphics/SVG/1.1/DTD/svg11.dtd"><svg t="1620189413322" class="icon" viewBox="0 0 1024 1024" version="1.1" xmlns="http://www.w3.org/2000/svg" p-id="2218" xmlns:xlink="http://www.w3.org/1999/xlink" width="200" height="200"><defs><style type="text/css"></style></defs><path d="M692.288 247.232c16.192 0 29.312 13.12 29.312 29.312v202.56h-4.416c48.512 0 87.936 39.552 87.936 88.128v270.016h61.568c14.4 0 26.368 10.432 28.8 24.128l0.512 5.248a29.312 29.312 0 0 1-29.312 29.376H157.312a29.312 29.312 0 0 1 0-58.688l61.504-0.064v-270.08c0-48.512 39.488-88.064 88-88.064h-4.416V276.544a29.312 29.312 0 1 1 58.624 0v202.56h121.664V276.544a29.312 29.312 0 1 1 58.624 0v202.56h121.6V276.544c0-16.192 13.184-29.312 29.376-29.312z m54.208 438.848H277.44v145.28h469.12l-0.064-145.28z m-29.312-148.224H306.816a29.376 29.376 0 0 0-29.312 29.376l-0.064 60.096h469.056v-60.16a29.376 29.376 0 0 0-29.312-29.312zM512 128a29.312 29.312 0 0 1 5.248 58.24L512 186.688A29.312 29.312 0 0 1 512 128zM331.712 128a29.312 29.312 0 0 1 5.312 58.24l-5.312 0.448a29.312 29.312 0 0 1 0-58.688z m360.576 0a29.312 29.312 0 0 1 5.248 58.24l-5.248 0.448a29.312 29.312 0 0 1 0-58.688z" p-id="2219" fill="#8f8f8f"></path></svg>