<?xml version="1.0" standalone="no"?><!DOCTYPE svg PUBLIC "-//W3C//DTD SVG 1.1//EN" "http://www.w3.org/Graphics/SVG/1.1/DTD/svg11.dtd"><svg t="1578044158474" class="icon" viewBox="0 0 1024 1024" version="1.1" xmlns="http://www.w3.org/2000/svg" p-id="2866" xmlns:xlink="http://www.w3.org/1999/xlink" width="200" height="200"><defs><style type="text/css"></style></defs><path d="M512 512m-512 0a512 512 0 1 0 1024 0 512 512 0 1 0-1024 0Z" fill="#FF9DC6" p-id="2867"></path><path d="M512 572.416a219.477333 219.477333 0 1 1 219.477333-219.477333A219.818667 219.818667 0 0 1 512 572.416z m0-351.232a131.754667 131.754667 0 1 0 131.754667 131.754667A131.754667 131.754667 0 0 0 512 221.184z" fill="#FFFFFF" p-id="2868"></path><path d="M467.968 533.162667m44.032 0l-0.341333 0q44.032 0 44.032 44.032l0 268.970666q0 44.032-44.032 44.032l0.341333 0q-44.032 0-44.032-44.032l0-268.970666q0-44.032 44.032-44.032Z" fill="#FFFFFF" p-id="2869"></path><path d="M720.213333 633.856m0 44.032l0-0.341333q0 44.032-44.032 44.032l-328.704 0q-44.032 0-44.032-44.032l0 0.341333q0-44.032 44.032-44.032l328.704 0q44.032 0 44.032 44.032Z" fill="#FFFFFF" p-id="2870"></path></svg>