<?xml version="1.0" standalone="no"?><!DOCTYPE svg PUBLIC "-//W3C//DTD SVG 1.1//EN" "http://www.w3.org/Graphics/SVG/1.1/DTD/svg11.dtd"><svg t="1578044683692" class="icon" viewBox="0 0 1024 1024" version="1.1" xmlns="http://www.w3.org/2000/svg" p-id="3263" xmlns:xlink="http://www.w3.org/1999/xlink" width="200" height="200"><defs><style type="text/css"></style></defs><path d="M511.828476 511.828476m-511.828476 0a511.828476 511.828476 0 1 0 1023.656951 0 511.828476 511.828476 0 1 0-1023.656951 0Z" fill="#5AA7F9" p-id="3264"></path><path d="M511.828476 451.451926a219.551089 219.551089 0 1 1-219.551089 219.20804 219.551089 219.551089 0 0 1 219.551089-219.20804z m0 350.938694a131.730653 131.730653 0 1 0-131.730654-131.730654 131.730653 131.730653 0 0 0 131.730654 131.730654z" fill="#FFFFFF" p-id="3265"></path><path d="M555.738693 490.559464m-43.910217 0l0 0q-43.910218 0-43.910218-43.910218l0-269.293132q0-43.910218 43.910218-43.910218l0 0q43.910218 0 43.910217 43.910218l0 269.293132q0 43.910218-43.910217 43.910218Z" fill="#FFFFFF" p-id="3266"></path><path d="M449.971089 178.722664m31.049213-31.049213l0 0q31.049213-31.049213 62.098425 0l144.815469 144.815469q31.049213 31.049213 0 62.098425l0 0q-31.049213 31.049213-62.098425 0l-144.815469-144.815468q-31.049213-31.049213 0-62.098426Z" fill="#FFFFFF" p-id="3267"></path><path d="M367.201702 385.475204m-31.049213-31.049213l0 0q-31.049213-31.049213 0-62.098425l144.815469-144.815469q31.049213-31.049213 62.098426 0l0 0q31.049213 31.049213 0 62.098425l-144.815469 144.815469q-31.049213 31.049213-62.098426 0Z" fill="#FFFFFF" p-id="3268"></path></svg>