<?xml version="1.0" standalone="no"?><!DOCTYPE svg PUBLIC "-//W3C//DTD SVG 1.1//EN" "http://www.w3.org/Graphics/SVG/1.1/DTD/svg11.dtd"><svg t="1624355486722" class="icon" viewBox="0 0 1024 1024" version="1.1" xmlns="http://www.w3.org/2000/svg" p-id="13122" xmlns:xlink="http://www.w3.org/1999/xlink" width="200" height="200"><defs><style type="text/css"></style></defs><path d="M468.48 94.72m-84.48 0a84.48 84.48 0 1 0 168.96 0 84.48 84.48 0 1 0-168.96 0Z" p-id="13123" fill="#EC49A6"></path><path d="M674.05824 655.36l-121.01632-332.53376-0.69632-3.42016c0-4.85376 4.07552-8.78592 9.15456-8.78592 4.32128 0 7.94624 2.88768 8.9088 6.73792L652.67712 532.48c5.46816 12.30848 27.9552 20.48 42.74176 20.48 19.7632 0 21.8112-38.8096 21.38112-40.96l-82.26816-212.11136C627.38432 252.35456 579.3792 204.8 524.5952 204.8H417.3824c-54.784 0-106.35264 47.55456-113.50016 95.08864L225.30048 512c-1.78176 4.07552 0 40.96 21.36064 40.96 16.60928 0 38.7072-5.79584 42.74176-20.48l79.36-216.04352a9.15456 9.15456 0 0 1 8.62208-5.81632c5.05856 0 9.13408 3.93216 9.13408 8.76544l-0.57344 3.13344L268.04224 655.36c-0.22528 0.98304 0 19.47648 0 20.48 0 7.08608 17.1008 20.48 24.53504 20.48H368.64v268.1856c0 21.2992 18.75968 39.0144 40.96 39.0144s40.96-17.73568 40.96-39.0144V696.13568c0-5.79584 40.96-5.61152 40.96 0.18432v266.24c0 21.2992 18.78016 40.96 40.96 40.96 22.24128 0 40.96-19.68128 40.96-40.96V696.32h79.23712c7.41376 0 21.38112-13.39392 21.38112-20.48 0-1.6384 0.59392-19.06688 0-20.48z" p-id="13124" fill="#EC49A6"></path></svg>