<?xml version="1.0" standalone="no"?><!DOCTYPE svg PUBLIC "-//W3C//DTD SVG 1.1//EN" "http://www.w3.org/Graphics/SVG/1.1/DTD/svg11.dtd"><svg t="1617245699526" class="icon" viewBox="0 0 1024 1024" version="1.1" xmlns="http://www.w3.org/2000/svg" p-id="3552" xmlns:xlink="http://www.w3.org/1999/xlink" width="200" height="200"><defs><style type="text/css"></style></defs><path d="M849.92 222.208h-168.96v-56.32c0-31.232-25.088-56.32-56.32-56.32H399.36c-31.232 0-56.32 25.088-56.32 56.32v56.32H174.08c-61.952 0-112.64 50.688-112.64 112.64v466.432c0 61.952 50.688 112.64 112.64 112.64h675.84c61.952 0 112.64-50.688 112.64-112.64V334.848c0.512-61.44-50.688-112.64-112.64-112.64zM399.872 194.56c0-15.872 13.312-28.16 28.16-28.16h168.96c15.872 0 28.16 13.312 28.16 28.16v28.16H399.36c0.512-0.512 0.512-28.16 0.512-28.16zM117.76 334.848c0-31.232 25.088-56.32 56.32-56.32h675.84c31.232 0 56.32 25.088 56.32 56.32V476.16H117.76V334.848z m442.368 197.632c4.608 8.704 8.704 18.432 8.704 28.16 0 31.232-25.088 56.32-56.32 56.32s-56.32-25.088-56.32-56.32c0-9.728 2.56-19.968 8.704-28.16h95.232z m289.792 325.632H174.08c-31.232 0-56.32-25.088-56.32-56.32V532.48h286.208c-2.56 8.704-4.608 18.432-4.608 28.16 0 61.952 50.688 112.64 112.64 112.64s112.64-50.688 112.64-112.64c0-9.728-2.048-19.968-4.608-28.16H906.24v268.8c0.512 31.232-24.576 56.832-56.32 56.832z" p-id="3553" fill="#8f8f8f"></path></svg>