<?xml version="1.0" standalone="no"?><!DOCTYPE svg PUBLIC "-//W3C//DTD SVG 1.1//EN" "http://www.w3.org/Graphics/SVG/1.1/DTD/svg11.dtd"><svg t="1624355323451" class="icon" viewBox="0 0 1024 1024" version="1.1" xmlns="http://www.w3.org/2000/svg" p-id="6091" xmlns:xlink="http://www.w3.org/1999/xlink" width="200" height="200"><defs><style type="text/css"></style></defs><path d="M508.94924579 117.02902217m-109.82715142 0a109.8271514 109.8271514 0 1 0 219.65430281 0 109.8271514 109.8271514 0 1 0-219.65430281 0Z" p-id="6092" fill="#02A3FE"></path><path d="M642.36889637 252.07574167c-3.05075421-0.40676722-6.30489202-0.61015086-9.55902982-0.61015085H385.08862505c-3.25413782 0-6.50827565 0.20338363-9.76241347 0.61015085-40.26995552 4.88120672-71.59103203 39.04965382-71.59103204 80.74329466v322.15964413c2.64398697 18.30452524 18.30452524 32.33799458 37.21920132 32.33799457 20.7451286 0 37.62596854-16.88083995 37.62596856-37.62596858V422.51120997c0-6.71165924 5.49135757-12.40640046 12.40640039-12.40640044 6.71165924 0 12.40640046 5.49135757 12.40640046 12.40640044v509.47595236c0 26.23648615 21.35527943 47.59176558 47.5917656 47.5917656 26.23648615 0 47.38838201-21.15189584 47.59176562-47.38838199v-270.50020622c0-5.69474118 4.67782314-10.37256429 10.3725643-10.37256432h0.20338361c5.69474118 0 10.37256429 4.67782314 10.37256431 10.37256432v270.09343897c0 26.23648615 21.35527943 47.59176558 47.59176562 47.59176564s47.59176558-21.35527943 47.5917656-47.59176564V422.51120997c0-6.71165924 5.49135757-12.40640046 12.40640045-12.40640044s12.40640046 5.49135757 12.40640042 12.40640044v227.38288013c0 20.7451286 16.88083995 37.62596854 37.62596855 37.6259685 19.93159414 0 35.99889964-15.45715462 37.42258489-34.98198153V332.81903633c-0.40676722-41.69364081-31.93122736-76.06547152-72.20118287-80.74329466z" p-id="6093" fill="#02A3FE"></path></svg>