<?xml version="1.0" standalone="no"?><!DOCTYPE svg PUBLIC "-//W3C//DTD SVG 1.1//EN" "http://www.w3.org/Graphics/SVG/1.1/DTD/svg11.dtd"><svg t="1626859631446" class="icon" viewBox="0 0 1195 1024" version="1.1" xmlns="http://www.w3.org/2000/svg" p-id="1983" xmlns:xlink="http://www.w3.org/1999/xlink" width="233.3984375" height="200"><defs><style type="text/css">@font-face { font-family: feedback-iconfont; src: url("//at.alicdn.com/t/font_1031158_1uhr8ri0pk5.eot?#iefix") format("embedded-opentype"), url("//at.alicdn.com/t/font_1031158_1uhr8ri0pk5.woff2") format("woff2"), url("//at.alicdn.com/t/font_1031158_1uhr8ri0pk5.woff") format("woff"), url("//at.alicdn.com/t/font_1031158_1uhr8ri0pk5.ttf") format("truetype"), url("//at.alicdn.com/t/font_1031158_1uhr8ri0pk5.svg#iconfont") format("svg"); }
</style></defs><path d="M1125.4 972.815H651.636V631.106c0-139.404 12.083-248.772 36.25-328.108 24.165-79.336 49.296-132.298 115.05-195.766C868.69 43.763 914.313 24.718 1010.828 0l67.428 145.03c-67.428 25.767-108.507 37.26-171.865 102.994-63.358 65.735-68.03 129.316-68.03 183.965h287.04v540.826z m-651.636 0H0V631.106c0-139.404 12.083-248.772 36.249-328.108 24.166-79.336 49.296-132.298 115.05-195.766C217.054 43.763 262.676 24.718 359.192 0l67.428 145.03c-67.428 25.767-108.507 37.26-171.865 102.994-63.358 65.735-68.031 129.316-68.031 183.965h287.04v540.826z" p-id="1984" fill="#dadada"></path></svg>