<?xml version="1.0" standalone="no"?><!DOCTYPE svg PUBLIC "-//W3C//DTD SVG 1.1//EN" "http://www.w3.org/Graphics/SVG/1.1/DTD/svg11.dtd"><svg t="1626918069441" class="icon" viewBox="0 0 1024 1024" version="1.1" xmlns="http://www.w3.org/2000/svg" p-id="8351" xmlns:xlink="http://www.w3.org/1999/xlink" width="200" height="200"><defs><style type="text/css">@font-face { font-family: feedback-iconfont; src: url("//at.alicdn.com/t/font_1031158_1uhr8ri0pk5.eot?#iefix") format("embedded-opentype"), url("//at.alicdn.com/t/font_1031158_1uhr8ri0pk5.woff2") format("woff2"), url("//at.alicdn.com/t/font_1031158_1uhr8ri0pk5.woff") format("woff"), url("//at.alicdn.com/t/font_1031158_1uhr8ri0pk5.ttf") format("truetype"), url("//at.alicdn.com/t/font_1031158_1uhr8ri0pk5.svg#iconfont") format("svg"); }
</style></defs><path d="M582.582857 563.931429c192.804571 0 349.696 155.721143 349.696 346.697142 0 61.147429-50.249143 110.811429-111.908571 110.811429H185.490286c-29.988571 0-58.660571-11.995429-79.652572-32.914286a106.203429 106.203429 0 0 1-31.744-77.824c0-191.049143 156.891429-346.697143 349.769143-346.697143h158.72z m0 64.073142h-158.72c-76.068571 0-147.894857 29.330286-201.728 82.651429a279.405714 279.405714 0 0 0-83.236571 200.045714c0 25.746286 20.918857 46.08 46.665143 46.08h635.392a46.665143 46.665143 0 0 0 46.665142-46.08c0-155.794286-128.146286-282.697143-285.037714-282.697143zM503.588571 1.024c149.065143 0 270.628571 120.393143 270.628572 268.288C773.632 417.206857 652.653714 537.6 502.930286 537.6c-72.411429 0-140.068571-28.16-190.976-78.482286a263.899429 263.899429 0 0 1-79.067429-189.805714c0-147.894857 121.563429-268.288 270.628572-268.288zM502.930286 65.828571C389.851429 65.755429 296.96 157.257143 296.96 269.312c0 112.64 92.16 204.214857 205.970286 204.214857 113.810286 0 206.043429-91.648 206.043428-204.214857S616.740571 65.828571 502.930286 65.828571z" p-id="8352" fill="#8f8f8f"></path></svg>